#!OML:ASF \\sashay\E\Suitcase\Project 1\Capture day 1\Session 1\Male1.ASF
:FULLY-SPECIFIED
:DEGREES
294
root 0.127856 17.5218 -33.6622 4.43387 0.154613 -0.124393
lowerback 14.6483 -2.95805 9.26613
upperback 6.59328 -2.34652 12.4473
thorax -0.931455 -1.19957 8.58756
lowerneck -12.3086 -6.09293 -2.17554
upperneck 18.4034 -7.76203 -0.897429
head 7.75202 -3.91208 -0.731834
rclavicle -2.54444e-014 4.13472e-014
rhumerus -17.9335 -11.8614 -56.5136
rradius 24.8458
rwrist -9.01587
rhand -16.1864 18.6735
rfingers 7.12502
rthumb 10.0203 -11.0679
lclavicle -2.54444e-014 4.13472e-014
lhumerus -29.0504 -10.9612 98.823
lradius 43.6758
lwrist 0.0810487
lhand -4.41786 39.6622
lfingers 7.12502
lthumb 21.3527 68.5057
rfemur -14.2847 -0.133996 21.6401
rtibia 28.2721
rfoot -19.3237 -6.1188
rtoes 17.3456
lfemur -15.1274 0.350661 -16.3527
ltibia 29.8682
lfoot -19.0629 1.06406
ltoes 0.460113
295
root 0.0942373 17.5103 -33.6296 4.27204 0.562086 -0.0663414
lowerback 14.4162 -2.99446 8.95089
upperback 6.59589 -2.47741 12.343
thorax -0.789513 -1.26671 8.65094
lowerneck -12.2044 -5.86707 -2.19639
upperneck 17.8801 -7.46316 -0.795161
head 7.56438 -3.76581 -0.649467
rclavicle 3.33958e-014 -6.04305e-014
rhumerus -18.637 -12.0405 -56.6686
rradius 24.9418
rwrist -9.45222
rhand -15.7331 18.7648
rfingers 7.12502
rthumb 10.4577 -10.9551
lclavicle 3.33958e-014 -6.04305e-014
lhumerus -29.1226 -10.8964 98.6746
lradius 43.5273
lwrist 0.0971985
lhand -4.42167 39.6596
lfingers 7.12502
lthumb 21.349 68.5035
rfemur -13.9128 -0.292385 21.7095
rtibia 28.2373
rfoot -19.5056 -6.20233
rtoes 18.3775
lfemur -14.9971 0.334094 -16.2598
ltibia 30.0979
lfoot -19.0718 0.785635
ltoes 0.0286037
296
root 0.0732522 17.511 -33.5999 4.36333 0.551716 -0.379484
lowerback 14.0924 -2.83265 8.97981
upperback 6.5794 -2.3166 12.3387
thorax -0.649036 -1.1841 8.58268
lowerneck -12.0475 -5.84371 -2.27796
upperneck 17.187 -7.44705 -0.59901
head 7.32075 -3.74924 -0.551712
rclavicle 1.27222e-014 -5.08889e-014
rhumerus -19.2567 -12.5672 -56.6488
rradius 24.6282
rwrist -9.25562
rhand -15.1776 19.5088
rfingers 7.12502
rthumb 10.9934 -10.1833
lclavicle 1.27222e-014 -5.08889e-014
lhumerus -29.4407 -10.9994 98.7523
lradius 43.5846
lwrist 0.287845
lhand -4.43176 40.1726
lfingers 7.12502
lthumb 21.3393 69.0176
rfemur -13.9103 -0.216185 22.1501
rtibia 28.2286
rfoot -19.6567 -6.22374
rtoes 17.2824
lfemur -15.1263 0.609641 -15.8354
ltibia 30.2891
lfoot -19.3611 0.566142
ltoes -1.00894
297
root 0.0489879 17.5025 -33.5842 4.37564 0.816935 -0.537663
lowerback 14.0277 -2.84989 8.86977
upperback 6.52002 -2.35397 12.3044
thorax -0.674502 -1.20376 8.60859
lowerneck -12.1878 -5.66646 -2.03851
upperneck 16.6999 -7.20246 -0.817527
head 7.16648 -3.63971 -0.629767
rclavicle -4.45278e-014 -9.54166e-015
rhumerus -19.7508 -12.4587 -56.8393
rradius 24.5621
rwrist -9.64289
rhand -15.5255 19.1179
rfingers 7.12502
rthumb 10.6579 -10.5918
lclavicle -4.45278e-014 -9.54166e-015
lhumerus -29.6247 -10.8226 98.6003
lradius 43.6033
lwrist 0.368834
lhand -3.77124 41.0215
lfingers 7.12502
lthumb 21.9736 69.7935
rfemur -13.8226 -0.313096 22.4262
rtibia 28.2172
rfoot -19.7423 -6.22408
rtoes 18.4864
lfemur -15.1981 0.530389 -15.5464
ltibia 30.4962
lfoot -19.4434 0.490911
ltoes -0.670217
298
root 0.0236229 17.5014 -33.5582 4.37021 0.993496 -0.58315
lowerback 13.9414 -2.79153 8.58557
upperback 6.30063 -2.29382 12.2511
thorax -0.867006 -1.1783 8.6988
lowerneck -11.6932 -5.53803 -2.2258
upperneck 16.3172 -7.0153 -0.734988
head 6.96557 -3.55807 -0.531922
rclavicle 1.74931e-014 -1.11319e-013
rhumerus -21.0279 -11.6943 -56.9567
rradius 25.2062
rwrist -10.7597
rhand -15.5021 18.8535
rfingers 7.12502
rthumb 10.6805 -10.855
lclavicle 1.74931e-014 -1.11319e-013
lhumerus -30.1429 -10.8553 98.733
lradius 43.3798
lwrist 0.766416
lhand -4.30484 40.1734
lfingers 7.12502
lthumb 21.4612 69.0046
rfemur -13.6918 -0.139115 22.5939
rtibia 28.2086
rfoot -19.7733 -6.22588
rtoes 17.9331
lfemur -15.24 0.546686 -15.3917
ltibia 30.6781
lfoot -19.5017 0.257275
ltoes -2.17488
299
root 0.000576069 17.4973 -33.5282 4.36038 1.17873 -0.46949
lowerback 13.7416 -2.83235 8.36754
upperback 6.11777 -2.38632 11.9791
thorax -0.958846 -1.22248 8.51551
lowerneck -10.9704 -5.31025 -2.08386
upperneck 15.6276 -6.75934 -0.643131
head 6.61421 -3.42383 -0.465569
rclavicle 2.8625e-014 5.08889e-014
rhumerus -22.1223 -11.2706 -57.3224
rradius 25.5038
rwrist -11.4324
rhand -15.6627 18.5407
rfingers 7.12502
rthumb 10.5255 -11.1757
lclavicle 2.8625e-014 5.08889e-014
lhumerus -30.8328 -10.3922 98.3766
lradius 43.4027
lwrist 0.307814
lhand -4.27634 39.5358
lfingers 7.12502
lthumb 21.4886 68.3639
rfemur -13.5743 -0.383687 22.5515
rtibia 28.2352
rfoot -19.9863 -6.32519
rtoes 18.1877
lfemur -15.3615 0.867908 -15.4635
ltibia 30.952
lfoot -19.6365 0.031006
ltoes -2.76652
300
root -0.0204 17.4837 -33.5009 4.24354 1.16412 -0.702199
lowerback 13.6179 -2.85071 8.34431
upperback 6.07547 -2.43094 11.9008
thorax -0.937829 -1.24388 8.43878
lowerneck -10.8267 -5.01687 -2.36879
upperneck 15.4553 -6.3564 -0.378117
head 6.55053 -3.22595 -0.292934
rclavicle 1.74931e-014 -6.04305e-014
rhumerus -22.6766 -11.2813 -57.5018
rradius 25.2783
rwrist -11.5831
rhand -15.5631 18.9881
rfingers 7.12502
rthumb 10.6217 -10.7234
lclavicle 1.74931e-014 -6.04305e-014
lhumerus -31.0207 -10.1101 98.2236
lradius 43.0801
lwrist 0.346675
lhand -4.46879 39.8439
lfingers 7.12502
lthumb 21.3037 68.693
rfemur -13.3184 -0.440303 22.8833
rtibia 28.192
rfoot -19.9141 -6.11628
rtoes 18.2436
lfemur -15.4314 0.894987 -15.1726
ltibia 31.2315
lfoot -19.2795 0.422252
ltoes -6.47806
301
root -0.0414932 17.4827 -33.4761 4.22694 1.22151 -0.773331
lowerback 13.6959 -2.78611 8.23135
upperback 5.95067 -2.33117 11.751
thorax -1.12927 -1.19352 8.32435
lowerneck -10.7093 -4.89305 -2.29661
upperneck 14.9952 -6.19808 -0.390363
head 6.37891 -3.14801 -0.283187
rclavicle 8.74653e-014 -9.22361e-014
rhumerus -23.5276 -11.4031 -57.7541
rradius 25.5846
rwrist -11.7628
rhand -16.0434 18.4985
rfingers 7.12502
rthumb 10.1583 -11.2363
lclavicle 8.74653e-014 -9.22361e-014
lhumerus -31.4633 -10.1593 98.1484
lradius 43.0781
lwrist 0.515355
lhand -4.21916 40.6666
lfingers 7.12502
lthumb 21.5435 69.4884
rfemur -13.1868 -0.674976 23.0396
rtibia 28.1583
rfoot -20.0802 -5.94411
rtoes 19.3396
lfemur -15.3289 0.843552 -14.9617
ltibia 31.583
lfoot -19.4583 -0.207143
ltoes -2.14647
